<svg xmlns="http://www.w3.org/2000/svg" xmlns:xlink="http://www.w3.org/1999/xlink" width="2000" zoomAndPan="magnify" viewBox="0 0 1500 1499.999933" height="2000" preserveAspectRatio="xMidYMid meet" version="1.0"><defs><g/></defs><rect x="-150" width="1800" fill="#ffffff" y="-149.999993" height="1799.99992" fill-opacity="1"/><rect x="-150" width="1800" fill="#000000" y="-149.999993" height="1799.99992" fill-opacity="1"/><g fill="#ffffff" fill-opacity="1"><g transform="translate(175.235789, 776.249913)"><g><path d="M 96.28125 -16.375 L 96.28125 -73.015625 L 109.734375 -73.015625 L 109.734375 0 L 95.34375 0 L 19.71875 -59.984375 L 19.71875 0 L 6.265625 0 L 6.265625 -73.015625 L 24.828125 -73.015625 Z M 96.28125 -16.375 "/></g></g></g><g fill="#ffffff" fill-opacity="1"><g transform="translate(313.865297, 776.249913)"><g><path d="M 63.734375 -73.015625 C 71.796875 -73.015625 79.304688 -72.078125 86.265625 -70.203125 C 93.222656 -68.328125 99.328125 -65.734375 104.578125 -62.421875 C 109.828125 -59.117188 113.910156 -55.257812 116.828125 -50.84375 C 119.753906 -46.4375 121.21875 -41.660156 121.21875 -36.515625 C 121.21875 -31.367188 119.753906 -26.585938 116.828125 -22.171875 C 113.910156 -17.753906 109.828125 -13.894531 104.578125 -10.59375 C 99.328125 -7.289062 93.222656 -4.695312 86.265625 -2.8125 C 79.304688 -0.9375 71.796875 0 63.734375 0 C 55.671875 0 48.160156 -0.9375 41.203125 -2.8125 C 34.242188 -4.695312 28.140625 -7.289062 22.890625 -10.59375 C 17.640625 -13.894531 13.554688 -17.753906 10.640625 -22.171875 C 7.722656 -26.585938 6.265625 -31.367188 6.265625 -36.515625 C 6.265625 -41.660156 7.722656 -46.4375 10.640625 -50.84375 C 13.554688 -55.257812 17.640625 -59.117188 22.890625 -62.421875 C 28.140625 -65.734375 34.242188 -68.328125 41.203125 -70.203125 C 48.160156 -72.078125 55.671875 -73.015625 63.734375 -73.015625 Z M 63.734375 -12.515625 C 68.953125 -12.515625 74.148438 -13.125 79.328125 -14.34375 C 84.503906 -15.5625 89.25 -17.265625 93.5625 -19.453125 C 97.875 -21.640625 101.316406 -24.175781 103.890625 -27.0625 C 106.460938 -29.945312 107.75 -33.097656 107.75 -36.515625 C 107.75 -39.921875 106.460938 -43.066406 103.890625 -45.953125 C 101.316406 -48.835938 97.875 -51.375 93.5625 -53.5625 C 89.25 -55.75 84.503906 -57.453125 79.328125 -58.671875 C 74.148438 -59.890625 68.953125 -60.5 63.734375 -60.5 C 58.515625 -60.5 53.316406 -59.890625 48.140625 -58.671875 C 42.960938 -57.453125 38.21875 -55.75 33.90625 -53.5625 C 29.59375 -51.375 26.148438 -48.835938 23.578125 -45.953125 C 21.003906 -43.066406 19.71875 -39.921875 19.71875 -36.515625 C 19.71875 -33.097656 21.003906 -29.945312 23.578125 -27.0625 C 26.148438 -24.175781 29.59375 -21.640625 33.90625 -19.453125 C 38.21875 -17.265625 42.960938 -15.5625 48.140625 -14.34375 C 53.316406 -13.125 58.515625 -12.515625 63.734375 -12.515625 Z M 63.734375 -12.515625 "/></g></g></g><g fill="#ffffff" fill-opacity="1"><g transform="translate(461.360817, 776.249913)"><g><path d="M 107.34375 -73.015625 L 57.375 -41 L 108.59375 0 L 87 0 L 45.375 -33.28125 L 19.71875 -16.796875 L 19.71875 0 L 6.265625 0 L 6.265625 -73.015625 L 19.71875 -73.015625 L 19.71875 -32.75 L 82.40625 -73.015625 Z M 107.34375 -73.015625 "/></g></g></g><g fill="#ffffff" fill-opacity="1"><g transform="translate(592.270913, 776.249913)"><g><path d="M 6.265625 -59.5625 L 6.265625 -73.015625 L 111.609375 -73.015625 L 111.609375 -59.5625 L 65.71875 -59.5625 L 65.71875 0 L 52.265625 0 L 52.265625 -59.5625 Z M 6.265625 -59.5625 "/></g></g></g><g fill="#ffffff" fill-opacity="1"><g transform="translate(716.087187, 776.249913)"><g><path d="M 58.3125 -73.015625 L 74.578125 -73.015625 L 126.734375 0 L 110.265625 0 L 99.9375 -14.5 L 32.859375 -14.5 L 22.53125 0 L 6.265625 0 Z M 42.453125 -27.953125 L 90.328125 -27.953125 L 66.453125 -61.328125 Z M 42.453125 -27.953125 "/></g></g></g><g fill="#ffffff" fill-opacity="1"><g transform="translate(871.718991, 776.249913)"><g/></g></g><g fill="#ffffff" fill-opacity="1"><g transform="translate(923.563744, 776.249913)"><g><path d="M 63.734375 -73.015625 C 71.796875 -73.015625 79.304688 -72.078125 86.265625 -70.203125 C 93.222656 -68.328125 99.328125 -65.734375 104.578125 -62.421875 C 109.828125 -59.117188 113.910156 -55.257812 116.828125 -50.84375 C 119.753906 -46.4375 121.21875 -41.660156 121.21875 -36.515625 C 121.21875 -31.367188 119.753906 -26.585938 116.828125 -22.171875 C 113.910156 -17.753906 109.828125 -13.894531 104.578125 -10.59375 C 99.328125 -7.289062 93.222656 -4.695312 86.265625 -2.8125 C 79.304688 -0.9375 71.796875 0 63.734375 0 C 55.671875 0 48.160156 -0.9375 41.203125 -2.8125 C 34.242188 -4.695312 28.140625 -7.289062 22.890625 -10.59375 C 17.640625 -13.894531 13.554688 -17.753906 10.640625 -22.171875 C 7.722656 -26.585938 6.265625 -31.367188 6.265625 -36.515625 C 6.265625 -41.660156 7.722656 -46.4375 10.640625 -50.84375 C 13.554688 -55.257812 17.640625 -59.117188 22.890625 -62.421875 C 28.140625 -65.734375 34.242188 -68.328125 41.203125 -70.203125 C 48.160156 -72.078125 55.671875 -73.015625 63.734375 -73.015625 Z M 63.734375 -12.515625 C 68.953125 -12.515625 74.148438 -13.125 79.328125 -14.34375 C 84.503906 -15.5625 89.25 -17.265625 93.5625 -19.453125 C 97.875 -21.640625 101.316406 -24.175781 103.890625 -27.0625 C 106.460938 -29.945312 107.75 -33.097656 107.75 -36.515625 C 107.75 -39.921875 106.460938 -43.066406 103.890625 -45.953125 C 101.316406 -48.835938 97.875 -51.375 93.5625 -53.5625 C 89.25 -55.75 84.503906 -57.453125 79.328125 -58.671875 C 74.148438 -59.890625 68.953125 -60.5 63.734375 -60.5 C 58.515625 -60.5 53.316406 -59.890625 48.140625 -58.671875 C 42.960938 -57.453125 38.21875 -55.75 33.90625 -53.5625 C 29.59375 -51.375 26.148438 -48.835938 23.578125 -45.953125 C 21.003906 -43.066406 19.71875 -39.921875 19.71875 -36.515625 C 19.71875 -33.097656 21.003906 -29.945312 23.578125 -27.0625 C 26.148438 -24.175781 29.59375 -21.640625 33.90625 -19.453125 C 38.21875 -17.265625 42.960938 -15.5625 48.140625 -14.34375 C 53.316406 -13.125 58.515625 -12.515625 63.734375 -12.515625 Z M 63.734375 -12.515625 "/></g></g></g><g fill="#ffffff" fill-opacity="1"><g transform="translate(1073.562861, 776.249913)"><g><path d="M 96.28125 -16.375 L 96.28125 -73.015625 L 109.734375 -73.015625 L 109.734375 0 L 95.34375 0 L 19.71875 -59.984375 L 19.71875 0 L 6.265625 0 L 6.265625 -73.015625 L 24.828125 -73.015625 Z M 96.28125 -16.375 "/></g></g></g><g fill="#ffffff" fill-opacity="1"><g transform="translate(1212.192369, 776.249913)"><g><path d="M 6.265625 0 L 6.265625 -72.921875 L 106.296875 -72.921875 L 106.296875 -59.453125 L 19.71875 -59.453125 L 19.71875 -47.046875 L 85.125 -47.046875 L 85.125 -33.59375 L 19.71875 -33.59375 L 19.71875 -13.453125 L 106.296875 -13.453125 L 106.296875 0 Z M 6.265625 0 "/></g></g></g></svg>